<?xml version="1.0" encoding="UTF-8"?>
<svg version="1.1" xmlns="http://www.w3.org/2000/svg" width="947" height="532">
<path d="M0 0 C312.51 0 625.02 0 947 0 C947 175.56 947 351.12 947 532 C634.49 532 321.98 532 0 532 C0 356.44 0 180.88 0 0 Z " fill="#F8F8F8" transform="translate(0,0)"/>
<path d="M0 0 C1.20333189 0.83171469 2.39226735 1.68482552 3.5625 2.5625 C4.614375 3.34625 5.66625 4.13 6.75 4.9375 C13.3375079 11.08584071 18.95551185 20.3071523 19.72363281 29.48852539 C20.02478759 45.06277981 18.79267459 57.03282416 8.1875 69.3125 C7.32125 70.055 6.455 70.7975 5.5625 71.5625 C5.02367187 72.04203125 4.48484375 72.5215625 3.9296875 73.015625 C-6.27419926 81.4690542 -17.45872664 83.65265803 -30.4375 82.5625 C-41.47828698 81.33390115 -51.01965591 75.71928641 -58.4375 67.5625 C-66.8491246 55.84499674 -69.26119804 44.83494055 -68.4375 30.5625 C-67.82665336 27.32549378 -66.81116572 24.54800734 -65.4375 21.5625 C-64.92703125 20.35013672 -64.92703125 20.35013672 -64.40625 19.11328125 C-59.30601307 7.86174504 -51.60974198 0.76660239 -40.4375 -4.4375 C-27.11630699 -9.02097147 -12.06117785 -7.20478677 0 0 Z " fill="#09090A" transform="translate(240.4375,142.4375)"/>
<path d="M0 0 C7.0125 -0.0825 14.025 -0.165 21.25 -0.25 C24.53179199 -0.30462402 24.53179199 -0.30462402 27.87988281 -0.36035156 C40.66325796 -0.48492643 52.02857859 -0.14428058 62.37890625 8.35546875 C67.49775121 13.5483211 69.1309428 19.50979401 69.375 26.625 C69.30536323 33.75406433 67.2064421 39.14485574 62.6484375 44.625 C58.77318768 48.26210598 54.00418961 49.63218817 49 51 C54.8412785 62.34437771 62.33040105 72.84158855 69.8203125 83.14453125 C71 85 71 85 71 87 C65.68269667 87.88078031 60.22045266 88.73103333 55 87 C51.285285 83.1533704 49.27151482 78.93810812 47.04296875 74.12207031 C45.33514292 70.64725241 43.20174221 67.47065037 41.0625 64.25 C40.32338229 63.10991684 39.58504194 61.96932917 38.84765625 60.828125 C37.57444718 58.87928068 36.29127909 56.93691864 35 55 C32.78067723 54.49223956 32.78067723 54.49223956 30.2109375 54.48828125 C28.93935791 54.43861206 28.93935791 54.43861206 27.64208984 54.38793945 C26.5639502 54.36304443 25.48581055 54.33814941 24.375 54.3125 C20.95125 54.209375 17.5275 54.10625 14 54 C14 64.89 14 75.78 14 87 C9.38 87 4.76 87 0 87 C0 58.29 0 29.58 0 0 Z " fill="#0C0C0C" transform="translate(736,137)"/>
<path d="M0 0 C5.28 0 10.56 0 16 0 C22 11.625 22 11.625 22 15 C22.66 15 23.32 15 24 15 C24.63421875 16.51787109 24.63421875 16.51787109 25.28125 18.06640625 C26.86897707 21.77203452 28.65979014 25.34989788 30.5 28.9375 C32.66110795 33.1927221 34.62871363 37.40638146 36.1796875 41.921875 C37.75200668 45.90508359 39.81831537 49.66537505 41.79296875 53.4609375 C43 56 43 56 43 58 C45.34494061 55.86206015 46.70059063 53.91574766 48.02124023 51.03857422 C48.38849716 50.24699921 48.75575409 49.45542419 49.13414001 48.63986206 C49.52170975 47.78675446 49.90927948 46.93364685 50.30859375 46.0546875 C50.71658707 45.17023956 51.12458038 44.28579163 51.54493713 43.37454224 C52.84869693 40.54418221 54.14313128 37.7096651 55.4375 34.875 C56.30474289 32.98930928 57.17257508 31.10388945 58.04101562 29.21875 C63.10726401 18.20810423 63.10726401 18.20810423 67.98817444 7.11453247 C69.16333924 4.65865051 70.59925108 2.33458154 72 0 C77.61 0 83.22 0 89 0 C89 28.71 89 57.42 89 87 C84.38 87 79.76 87 75 87 C74.67 66.54 74.34 46.08 74 25 C68.79340105 35.40417962 68.79340105 35.40417962 64 46 C63.18760815 47.68799256 62.35913931 49.36838067 61.51171875 51.0390625 C61.05514893 51.94382324 60.5985791 52.84858398 60.12817383 53.78076172 C59.65275146 54.71936035 59.1773291 55.65795898 58.6875 56.625 C54.62943249 64.68213783 50.68320059 72.76330669 47 81 C45.02 81 43.04 81 41 81 C40.5153125 79.86304688 40.030625 78.72609375 39.53125 77.5546875 C35.69663619 68.68346521 31.6447689 60.24436134 26.56640625 52.015625 C24.9627736 48.92833221 24.36560091 46.43973813 24 43 C23.34 43 22.68 43 22 43 C21.66226562 42.18015625 21.32453125 41.3603125 20.9765625 40.515625 C20.53054688 39.43796875 20.08453125 38.3603125 19.625 37.25 C19.18414062 36.18265625 18.74328125 35.1153125 18.2890625 34.015625 C17.27388243 31.64071889 16.15505581 29.31011161 15 27 C14.67 46.8 14.34 66.6 14 87 C9.38 87 4.76 87 0 87 C0 58.29 0 29.58 0 0 Z " fill="#0C0C0C" transform="translate(279,137)"/>
<path d="M0 0 C49.71111111 0 49.71111111 0 60 10 C65.09562969 16.57500606 66.0152635 24.94134594 65 33 C62.87639343 40.67911303 59.92683992 46.78431033 53 51 C43.86319004 55.65146689 35.55477209 56.28013234 25.5 56.125 C21.705 56.08375 17.91 56.0425 14 56 C14 66.23 14 76.46 14 87 C9.38 87 4.76 87 0 87 C0 58.29 0 29.58 0 0 Z " fill="#0C0C0C" transform="translate(393,137)"/>
<path d="M0 0 C12 0 12 0 14.5 1.84375 C14.995 2.7203125 15.49 3.596875 16 4.5 C16.62003906 5.50160156 17.24007813 6.50320313 17.87890625 7.53515625 C18.37414795 8.36684326 18.37414795 8.36684326 18.87939453 9.21533203 C21.01264289 12.61272756 23.50428708 15.75192702 25.9375 18.9375 C26.97108179 20.31042332 28.00364348 21.68411524 29.03515625 23.05859375 C29.53547363 23.72358887 30.03579102 24.38858398 30.55126953 25.07373047 C33.38883815 28.84663515 36.21907378 32.62503918 39.05078125 36.40234375 C40.23397413 37.97914388 41.41850061 39.55494606 42.60546875 41.12890625 C46.80748952 46.70531451 50.89069969 52.34971207 55 58 C55.33 38.86 55.66 19.72 56 0 C60.29 0 64.58 0 69 0 C69 28.05 69 56.1 69 85 C58 85 58 85 55.37890625 82.97265625 C54.77949219 82.01230469 54.18007813 81.05195313 53.5625 80.0625 C52.84449219 78.97453125 52.12648438 77.8865625 51.38671875 76.765625 C51.00950684 76.16427734 50.63229492 75.56292969 50.24365234 74.94335938 C47.91844185 71.30993269 45.37541975 67.82646756 42.875 64.3125 C41.8475733 62.8503187 40.82022716 61.38808079 39.79296875 59.92578125 C36.66647378 55.50433788 33.3845095 51.22642729 30 47 C24.82769926 40.445241 19.91697891 33.760846 15 27 C14.67 46.14 14.34 65.28 14 85 C9.38 85 4.76 85 0 85 C0 56.95 0 28.9 0 0 Z " fill="#0B0B0B" transform="translate(459,261)"/>
<path d="M0 0 C1.65322266 0.01740234 1.65322266 0.01740234 3.33984375 0.03515625 C4.99693359 0.04869141 4.99693359 0.04869141 6.6875 0.0625 C7.54214844 0.07410156 8.39679688 0.08570313 9.27734375 0.09765625 C10.07158236 1.65885047 10.86261498 3.22167589 11.65234375 4.78515625 C12.09320313 5.65527344 12.5340625 6.52539062 12.98828125 7.421875 C14.20520496 9.94791362 15.24987583 12.49009822 16.27734375 15.09765625 C17.03778149 16.81064231 17.80912894 18.51881612 18.58984375 20.22265625 C19.02683594 21.18042969 19.46382812 22.13820313 19.9140625 23.125 C20.80926671 25.07700689 21.70760667 27.02757934 22.609375 28.9765625 C24.7395477 33.60373523 26.73389568 38.21038802 28.46484375 43 C29.84906674 46.57369109 31.48798081 50.03148081 33.08984375 53.51171875 C34.96899355 57.6038147 36.72257869 61.74365339 38.4296875 65.91015625 C40.35419702 70.58981467 42.27687516 75.21974931 44.58984375 79.72265625 C46.27734375 83.09765625 46.27734375 83.09765625 46.27734375 85.09765625 C41.32734375 85.09765625 36.37734375 85.09765625 31.27734375 85.09765625 C30.67921875 83.59203125 30.08109375 82.08640625 29.46484375 80.53515625 C28.20938762 77.38087857 26.91653862 74.25759552 25.52734375 71.16015625 C24.27734375 68.09765625 24.27734375 68.09765625 24.27734375 65.09765625 C10.74734375 65.09765625 -2.78265625 65.09765625 -16.72265625 65.09765625 C-17.71265625 68.06765625 -18.70265625 71.03765625 -19.72265625 74.09765625 C-21.29256797 77.81679922 -23.00970935 81.44028313 -24.72265625 85.09765625 C-29.34265625 85.09765625 -33.96265625 85.09765625 -38.72265625 85.09765625 C-37.30463683 80.63089509 -35.8472536 76.31687059 -33.92163086 72.04370117 C-31.71045409 67.09484879 -29.59344006 62.10961661 -27.4921875 57.11328125 C-27.0974675 56.1769989 -26.7027475 55.24071655 -26.29606628 54.27606201 C-25.04160605 51.30027299 -23.78826966 48.32401265 -22.53515625 45.34765625 C-17.5990973 33.62634497 -12.65775838 21.90725435 -7.671875 10.20703125 C-7.28892776 9.30366028 -6.90598053 8.40028931 -6.51142883 7.46954346 C-6.15920761 6.64524841 -5.80698639 5.82095337 -5.4440918 4.97167969 C-5.1347319 4.24511169 -4.82537201 3.5185437 -4.50663757 2.7699585 C-3.24351825 0.07561206 -3.15348058 0.11310906 0 0 Z " fill="#0B0B0B" transform="translate(228.72265625,260.90234375)"/>
<path d="M0 0 C8.07500444 3.62935659 13.97353926 10.17234381 17.44921875 18.25390625 C20.40724333 27.76755288 20.58300431 37.81202285 16.26171875 46.87890625 C13.90500511 50.97127017 11.6032861 54.21045657 7.94921875 57.19140625 C7.05203125 57.99578125 7.05203125 57.99578125 6.13671875 58.81640625 C-2.04231244 63.95751157 -11.07219517 64.53559619 -20.484375 62.72265625 C-25.41383143 61.10833134 -29.60414525 58.05810101 -33.05078125 54.19140625 C-33.05078125 53.53140625 -33.05078125 52.87140625 -33.05078125 52.19140625 C-33.71078125 52.19140625 -34.37078125 52.19140625 -35.05078125 52.19140625 C-40.77699834 41.49965036 -42.89859332 31.41640018 -39.8671875 19.41796875 C-36.82035515 11.10842597 -30.79205957 5.05535761 -23.34765625 0.55859375 C-16.34941195 -2.34352178 -7.2901706 -1.93222191 0 0 Z " fill="#F6F6F6" transform="translate(227.05078125,149.80859375)"/>
<path d="M0 0 C4.07213392 2.51980367 7.60829065 5.33484779 10.91015625 8.80078125 C10.30637666 12.21501109 9.99858866 12.72641764 7.16015625 15.11328125 C3.91015625 16.80078125 3.91015625 16.80078125 1.34765625 16.80078125 C-1.61166314 15.5867015 -3.60629979 13.81126921 -6.08984375 11.80078125 C-11.14010684 9.24140008 -15.32905373 8.27796729 -21.02734375 8.36328125 C-21.73028564 8.37012939 -22.43322754 8.37697754 -23.1574707 8.3840332 C-30.3454363 8.60670252 -34.33307968 10.50347786 -39.71484375 14.98828125 C-48.15190154 24.9795339 -50.10175099 32.68814995 -49.08984375 45.80078125 C-47.37645343 53.22236869 -44.3592241 60.86271305 -37.91015625 65.30078125 C-28.29240573 70.8506963 -17.33863262 71.1678774 -6.52734375 69.12890625 C-4.02320959 68.43766088 -1.55083473 67.63266552 0.91015625 66.80078125 C0.91015625 60.86078125 0.91015625 54.92078125 0.91015625 48.80078125 C-6.01984375 48.80078125 -12.94984375 48.80078125 -20.08984375 48.80078125 C-20.08984375 45.50078125 -20.08984375 42.20078125 -20.08984375 38.80078125 C-8.86984375 38.80078125 2.35015625 38.80078125 13.91015625 38.80078125 C13.91015625 50.68078125 13.91015625 62.56078125 13.91015625 74.80078125 C11.22890625 75.93515625 8.54765625 77.06953125 5.78515625 78.23828125 C4.95226074 78.59462646 4.11936523 78.95097168 3.26123047 79.31811523 C-8.03736343 84.03192851 -22.74762101 84.91828199 -34.66015625 81.89453125 C-37.31777522 80.71336726 -39.65949436 79.39278712 -42.08984375 77.80078125 C-42.87101562 77.37796875 -43.6521875 76.95515625 -44.45703125 76.51953125 C-54.095942 70.93740112 -59.87289368 61.25122019 -63.08984375 50.80078125 C-66.05138046 39.20142914 -64.22399139 25.79383818 -58.33984375 15.42578125 C-45.41980684 -4.20885612 -21.08011809 -10.5274964 0 0 Z " fill="#090909" transform="translate(344.08984375,264.19921875)"/>
<path d="M0 0 C19.8 0 39.6 0 60 0 C60 3.96 60 7.92 60 12 C44.82 12 29.64 12 14 12 C14 19.92 14 27.84 14 36 C26.21 36 38.42 36 51 36 C51 39.96 51 43.92 51 48 C38.46 48 25.92 48 13 48 C13 56.25 13 64.5 13 73 C28.84 73 44.68 73 61 73 C61 76.96 61 80.92 61 85 C40.87 85 20.74 85 0 85 C0 56.95 0 28.9 0 0 Z " fill="#0D0D0D" transform="translate(379,261)"/>
<path d="M0 0 C20.13 0 40.26 0 61 0 C61 3.96 61 7.92 61 12 C45.16 12 29.32 12 13 12 C13 20.58 13 29.16 13 38 C25.87 38 38.74 38 52 38 C52 41.63 52 45.26 52 49 C39.13 49 26.26 49 13 49 C13 57.58 13 66.16 13 75 C28.84 75 44.68 75 61 75 C61 78.96 61 82.92 61 87 C40.87 87 20.74 87 0 87 C0 58.29 0 29.58 0 0 Z " fill="#090909" transform="translate(652,137)"/>
<path d="M0 0 C4.62 0 9.24 0 14 0 C14.0093457 1.77044678 14.01869141 3.54089355 14.02832031 5.36499023 C14.06398232 11.24444871 14.11786532 17.12359216 14.18390274 23.00277615 C14.2232476 26.56396136 14.25549891 30.12490413 14.27099609 33.6862793 C14.28917491 37.78994565 14.33918211 41.89270852 14.390625 45.99609375 C14.39185364 47.26206894 14.39308228 48.52804413 14.39434814 49.8323822 C14.53228316 58.23053254 15.63193408 64.76275578 20.9375 71.4375 C26.96018429 76.00013961 33.76337056 75.68253579 41 75 C45.6547553 73.82703136 48.88090693 71.6524085 51.67456055 67.74023438 C55.22090911 61.79222504 54.72718182 55.39361016 54.70703125 48.65625 C54.7201665 47.27760654 54.73547631 45.89898226 54.75285339 44.52038574 C54.79250427 40.91676568 54.80288075 37.31365129 54.80688477 33.70983887 C54.81625422 30.02255099 54.8536912 26.3355556 54.88867188 22.6484375 C54.95304472 15.43223699 54.98385217 8.21649909 55 1 C59.62 1 64.24 1 69 1 C69.04536992 8.40681351 69.08198418 15.81354976 69.10362434 23.22047329 C69.11401591 26.66062564 69.12808935 30.10067715 69.15087891 33.54077148 C69.17697348 37.50503286 69.18651104 41.46925486 69.1953125 45.43359375 C69.20563507 46.65582138 69.21595764 47.87804901 69.22659302 49.13731384 C69.22802398 60.13059938 67.86607719 69.08774087 61 78 C52.69465485 86.01895393 43.18245305 88.30226578 31.87670898 88.31469727 C22.53951344 88.12335665 15.38875411 85.23412202 8.65234375 78.80078125 C6.42310056 76.37127508 4.6482299 73.85270559 3 71 C2.608125 70.360625 2.21625 69.72125 1.8125 69.0625 C-0.98953389 61.94964474 -0.1279287 53.6772652 -0.09765625 46.19140625 C-0.09578833 44.85619663 -0.0943662 43.52098631 -0.09336853 42.18577576 C-0.08957277 38.69237332 -0.079768 35.19901327 -0.06866455 31.70562744 C-0.0583868 28.1325335 -0.05385735 24.55943263 -0.04882812 20.98632812 C-0.03814275 13.99086638 -0.02057017 6.9954396 0 0 Z " fill="#0B0B0B" transform="translate(475,137)"/>
<path d="M0 0 C5.33043439 3.91370764 5.33043439 3.91370764 7.375 6.375 C7.375 7.365 7.375 8.355 7.375 9.375 C6.12764433 10.0259259 4.87698168 10.67051669 3.625 11.3125 C2.92890625 11.67214844 2.2328125 12.03179687 1.515625 12.40234375 C-2.30366006 14.13774882 -2.30366006 14.13774882 -4.625 14.375 C-6.37109375 13.265625 -6.37109375 13.265625 -8.0625 11.625 C-14.74759572 5.4684268 -20.31752528 3.8736816 -29.32421875 3.97265625 C-36.85336403 4.89041005 -43.42217752 8.66702845 -48.625 14.125 C-54.27554734 21.43340964 -56.39635404 28.78389252 -56.0703125 38 C-54.81463625 47.51670422 -50.93178328 56.04972492 -43.625 62.375 C-36.22614678 67.67983816 -28.53472847 68.41857041 -19.625 67.375 C-12.81832187 65.03004037 -7.87949801 62.25121255 -3.625 56.375 C0.7640815 56.88535831 3.71208062 57.89714277 7.375 60.375 C6.60937831 66.57545736 3.02230629 69.52113625 -1.625 73.375 C-4.19198798 75.04605884 -6.78330846 76.24595941 -9.625 77.375 C-10.58599609 77.82166016 -10.58599609 77.82166016 -11.56640625 78.27734375 C-21.64789971 82.42854694 -33.95505734 81.51026528 -43.94921875 77.62890625 C-54.56404908 72.65465729 -63.58383364 64.43053096 -67.79296875 53.28125 C-71.8758178 39.64046696 -71.97574609 27.63917601 -65.8671875 14.6640625 C-60.20228641 4.22496804 -50.91291628 -3.78710847 -39.625 -7.625 C-25.16721511 -11.15067035 -12.17763459 -8.28853453 0 0 Z " fill="#0B0B0B" transform="translate(153.625,144.625)"/>
<path d="M0 0 C4.25202047 3.6333242 7.27458829 6.44477636 9.05078125 11.83984375 C2.90101166 15.81910642 2.90101166 15.81910642 -0.51171875 15.90234375 C-3.85674461 14.44425556 -6.21224619 12.23469474 -8.94921875 9.83984375 C-16.12660206 5.05492154 -24.04214783 4.75242664 -32.453125 6.30078125 C-40.47706458 8.67307643 -46.17797683 12.85774092 -50.44921875 20.08984375 C-54.43577482 28.86026709 -54.60415203 39.00721304 -51.98828125 48.2265625 C-50.82575567 50.9403563 -49.53564899 53.35384552 -47.94921875 55.83984375 C-46.92828125 57.47953125 -46.92828125 57.47953125 -45.88671875 59.15234375 C-39.88810341 64.64043864 -33.03454229 68.16821271 -24.82421875 68.46484375 C-17.58676253 68.05696614 -11.54901087 66.05243279 -6.01171875 61.33984375 C-4.25665005 59.21248775 -2.53639907 57.09531053 -0.94921875 54.83984375 C2.84179315 56.2893483 6.43824505 57.99156941 10.05078125 59.83984375 C9.62743232 64.6377983 7.53407869 67.67611489 4.05078125 70.83984375 C-7.920145 79.58456292 -21.37250255 81.95690343 -35.94921875 79.83984375 C-49.15543937 76.15771231 -57.60194841 67.18905208 -64.17578125 55.6953125 C-69.30333873 46.04886443 -69.7216566 32.80735805 -67.04296875 22.27734375 C-62.01065998 9.63205505 -53.52029007 0.72589147 -41.34375 -5.21484375 C-28.24815561 -10.38471951 -11.19810421 -8.20205513 0 0 Z " fill="#090909" transform="translate(612.94921875,267.16015625)"/>
<path d="M0 0 C23.76 0 47.52 0 72 0 C72 4.29 72 8.58 72 13 C62.76 13 53.52 13 44 13 C44 37.42 44 61.84 44 87 C39.38 87 34.76 87 30 87 C30 62.58 30 38.16 30 13 C20.1 13 10.2 13 0 13 C0 8.71 0 4.42 0 0 Z " fill="#101010" transform="translate(561,137)"/>
<path d="M0 0 C5.07432949 -1.10936758 10.07487599 -1.97646509 15 0 C19.48757854 4.15665998 21.99325725 10.09807212 24.69287109 15.49316406 C26.75451524 19.44702326 29.19258696 23.14211923 31.625 26.875 C36.10853302 33.8006312 36.10853302 33.8006312 37 38 C39.69021608 35.55268247 41.46005049 32.86248432 43.36328125 29.7734375 C44.00330078 28.74089844 44.64332031 27.70835937 45.30273438 26.64453125 C45.96595703 25.56558594 46.62917969 24.48664063 47.3125 23.375 C54.86292205 11.14197198 54.86292205 11.14197198 58.35546875 5.7265625 C58.81977295 5.00291504 59.28407715 4.27926758 59.76245117 3.53369141 C60.17084229 3.02757324 60.5792334 2.52145508 61 2 C61.66 2 62.32 2 63 2 C63 1.34 63 0.68 63 0 C67.62 0 72.24 0 77 0 C75.42789374 3.93026565 74.21819204 6.33544171 71.80859375 9.63671875 C68.03365666 14.91381709 64.52758408 20.32839056 61.0625 25.8125 C60.49337891 26.70775391 59.92425781 27.60300781 59.33789062 28.52539062 C58.16494395 30.37498667 57.00451585 32.23257376 55.85595703 34.09741211 C54.57833595 36.09552274 53.22441899 38.04619492 51.81201172 39.95141602 C45.16509077 49.36628254 44.85639454 57.21043065 45 68.3125 C44.99188703 69.9394751 44.98019054 71.56643643 44.96484375 73.19335938 C44.93535661 77.12996925 44.9539712 81.06357873 45 85 C40.71 85 36.42 85 32 85 C32.04825928 84.09572266 32.09651855 83.19144531 32.14624023 82.25976562 C33.04438358 60.94202937 31.52730229 46.8587612 17.94848633 29.49829102 C12.97123107 23.11660287 8.47062561 16.34718028 4.0625 9.5625 C3.66482422 8.96501953 3.26714844 8.36753906 2.85742188 7.75195312 C0 3.35024473 0 3.35024473 0 0 Z " fill="#090909" transform="translate(627,261)"/>
<path d="M0 0 C4.57875 -0.103125 9.1575 -0.20625 13.875 -0.3125 C16.0094458 -0.38078003 16.0094458 -0.38078003 18.18701172 -0.45043945 C26.16421675 -0.5368694 32.42422636 0.20947308 39 5 C41.85308399 8.77614058 42.551767 12.2262558 42.3515625 16.9765625 C41.53306478 21.68747161 39.28748815 25.0803656 35.375 27.875 C34.59125 28.24625 33.8075 28.6175 33 29 C32.01 29.495 32.01 29.495 31 30 C28.67583704 30.08586809 26.34916693 30.10711043 24.0234375 30.09765625 C23.33819 30.0962413 22.6529425 30.09482635 21.94692993 30.09336853 C19.75624239 30.08776675 17.5656567 30.07521406 15.375 30.0625 C13.89062648 30.05748522 12.40625135 30.05292228 10.921875 30.04882812 C7.2811791 30.03864721 3.64070369 30.01907237 0 30 C0 20.1 0 10.2 0 0 Z " fill="#F1F1F1" transform="translate(749,149)"/>
<path d="M0 0 C6.435 -0.1546875 6.435 -0.1546875 13 -0.3125 C14.33675781 -0.35802002 15.67351562 -0.40354004 17.05078125 -0.45043945 C23.55596523 -0.52591127 28.20651118 -0.21217313 33.59570312 3.59985352 C37.09217492 7.08599151 37.11240712 11.83769239 37.4375 16.5 C37.33067587 20.67326257 36.13299344 23.17300887 33.6796875 26.4921875 C27.40672174 32.12326839 20.58146719 31.35430534 12.625 31.1875 C8.45875 31.125625 4.2925 31.06375 0 31 C0 20.77 0 10.54 0 0 Z " fill="#F7F7F7" transform="translate(407,150)"/>
<path d="M0 0 C0 31.35 0 62.7 0 95 C-2.475 95.495 -2.475 95.495 -5 96 C-6.88885195 94.11114805 -6.12010635 91.35948241 -6.12442017 88.84675598 C-6.12082489 87.9620311 -6.11722961 87.07730621 -6.11352539 86.16577148 C-6.11367142 85.23903625 -6.11381744 84.31230103 -6.1139679 83.35748291 C-6.11326838 80.27866313 -6.10547421 77.19990303 -6.09765625 74.12109375 C-6.09579221 71.99259982 -6.09436824 69.86410547 -6.09336853 67.73561096 C-6.08954228 62.1213768 -6.07971108 56.50716832 -6.06866455 50.89294434 C-6.05845273 45.16886747 -6.0538714 39.44478647 -6.04882812 33.72070312 C-6.03808891 22.48045744 -6.0210112 11.24023085 -6 0 C-4 -1 -4 -1 0 0 Z " fill="#5F5F5F" transform="translate(33,189)"/>
<path d="M0 0 C4.05420049 3.35520041 5.34797043 7.1767378 7 12 C7.63503557 13.65002966 8.28131689 15.29576562 8.9375 16.9375 C9.27136719 17.77410156 9.60523438 18.61070312 9.94921875 19.47265625 C11.2883952 22.69364941 12.75702535 25.84733747 14.265625 28.9921875 C15 31 15 31 15 35 C5.76 35 -3.48 35 -13 35 C-12.18674115 30.12044688 -11.05547543 26.17592558 -9.1875 21.6875 C-8.7848291 20.70064209 -8.7848291 20.70064209 -8.37402344 19.69384766 C-6.59702873 15.36415216 -4.74619935 11.07078941 -2.8125 6.80859375 C-1.80498717 4.56590893 -0.88745459 2.29259102 0 0 Z " fill="#F0F0F0" transform="translate(231,279)"/>
<path d="M0 0 C1.98 0.495 1.98 0.495 4 1 C4 32.35 4 63.7 4 96 C2.35 96 0.7 96 -1 96 C-1.02312154 83.63081285 -1.04091412 71.26163081 -1.05181217 58.89242649 C-1.05704141 53.14954938 -1.0641398 47.40668699 -1.07543945 41.66381836 C-1.08626687 36.12660005 -1.09227652 30.58939596 -1.09487724 25.05216789 C-1.09673176 22.93455723 -1.10035286 20.81694738 -1.10573006 18.69934273 C-1.11293856 15.74428726 -1.11399102 12.78929129 -1.11352539 9.83422852 C-1.11712067 8.94950363 -1.12071594 8.06477875 -1.12442017 7.15324402 C-1.11405216 1.11405216 -1.11405216 1.11405216 0 0 Z " fill="#232323" transform="translate(868,188)"/>
<path d="M0 0 C0 31.35 0 62.7 0 95 C-0.99 94.67 -1.98 94.34 -3 94 C-3 63.31 -3 32.62 -3 1 C-1 0 -1 0 0 0 Z " fill="#080807" transform="translate(32,190)"/>
<path d="M0 0 C1.32 1.32 2.64 2.64 4 4 C3.34 4.66 2.68 5.32 2 6 C1.66883262 8.34409571 1.66883262 8.34409571 1.68115234 11.09228516 C1.66128265 12.15323395 1.64141296 13.21418274 1.62094116 14.30728149 C1.60938995 15.45626923 1.59783875 16.60525696 1.5859375 17.7890625 C1.56657135 18.96262299 1.5472052 20.13618347 1.5272522 21.3453064 C1.46732336 25.10512961 1.42101754 28.86498323 1.375 32.625 C1.3368325 35.16928442 1.29778151 37.71355575 1.2578125 40.2578125 C1.16161095 46.50509241 1.07660262 52.75245072 1 59 C0.67 59 0.34 59 0 59 C0 39.53 0 20.06 0 0 Z " fill="#EAEAEA" transform="translate(473,287)"/>
<path d="M0 0 C0.99 0.33 1.98 0.66 3 1 C3 1.66 3 2.32 3 3 C2.34 3 1.68 3 1 3 C1 3.66 1 4.32 1 5 C0.34 5 -0.32 5 -1 5 C-1 15.89 -1 26.78 -1 38 C-1.33 38 -1.66 38 -2 38 C-2.04942899 33.07040878 -2.08573318 28.14096175 -2.10986328 23.21118164 C-2.11992237 21.53407275 -2.13357122 19.85698139 -2.15087891 18.17993164 C-2.17513152 15.76964998 -2.1864839 13.35960014 -2.1953125 10.94921875 C-2.20563507 10.19912033 -2.21595764 9.44902191 -2.22659302 8.67619324 C-2.227408 4.89699221 -2.15057067 3.22585601 0 0 Z " fill="#CBCBCB" transform="translate(674,308)"/>
<path d="M0 0 C0.99 0 1.98 0 3 0 C2.67 0.99 2.34 1.98 2 3 C1.34 3 0.68 3 0 3 C0 9.6 0 16.2 0 23 C-0.33 23 -0.66 23 -1 23 C-1.02887512 19.35418313 -1.04675585 15.70839537 -1.0625 12.0625 C-1.07087891 11.02158203 -1.07925781 9.98066406 -1.08789062 8.90820312 C-1.09272461 7.42416992 -1.09272461 7.42416992 -1.09765625 5.91015625 C-1.10289307 4.99371338 -1.10812988 4.07727051 -1.11352539 3.13305664 C-1 1 -1 1 0 0 Z " fill="#1E1E1E" transform="translate(29,188)"/>
<path d="M0 0 C5.01113235 1.4317521 6.94469549 3.98445693 10 8 C9.01 8 8.02 8 7 8 C6.34 7.34 5.68 6.68 5 6 C4.01 6 3.02 6 2 6 C2 5.01 2 4.02 2 3 C1.34 2.67 0.68 2.34 0 2 C0 1.34 0 0.68 0 0 Z " fill="#111111" transform="translate(608,265)"/>
<path d="M0 0 C0.99 0.33 1.98 0.66 3 1 C3 1.66 3 2.32 3 3 C3.99 3 4.98 3 6 3 C5.67 4.32 5.34 5.64 5 7 C5.99 7 6.98 7 8 7 C7.34 8.32 6.68 9.64 6 11 C4.9944239 9.54550599 3.99569565 8.08627557 3 6.625 C2.443125 5.81289063 1.88625 5.00078125 1.3125 4.1640625 C0 2 0 2 0 0 Z " fill="#E6E6E6" transform="translate(645,266)"/>
<path d="M0 0 C0.33 0.99 0.66 1.98 1 3 C0.195625 3.763125 -0.60875 4.52625 -1.4375 5.3125 C-4.16799024 7.79430898 -4.16799024 7.79430898 -5 11 C-5.99 11.33 -6.98 11.66 -8 12 C-6.49087042 7.01987239 -3.44338151 3.75740058 0 0 Z " fill="#313131" transform="translate(558,271)"/>
<path d="M0 0 C0 2 0 2 -1.64453125 3.7265625 C-2.35996094 4.35304688 -3.07539062 4.97953125 -3.8125 5.625 C-4.87404297 6.57246094 -4.87404297 6.57246094 -5.95703125 7.5390625 C-8 9 -8 9 -11 9 C-3.8 0 -3.8 0 0 0 Z " fill="#C9C9C9" transform="translate(574,276)"/>
<path d="M0 0 C0.66 0.99 1.32 1.98 2 3 C1.34 3 0.68 3 0 3 C-0.09152344 3.60328125 -0.18304687 4.2065625 -0.27734375 4.828125 C-1.17720492 7.53257263 -2.20702019 8.2082314 -4.5625 9.75 C-5.20316406 10.17796875 -5.84382812 10.6059375 -6.50390625 11.046875 C-7.24447266 11.51867187 -7.24447266 11.51867187 -8 12 C-8 11.01 -8 10.02 -8 9 C-6.34211215 7.65576661 -4.67423683 6.32381517 -3 5 C-1.21037181 2.38142305 -1.21037181 2.38142305 0 0 Z " fill="#D1D1D1" transform="translate(539,209)"/>
<path d="M0 0 C2.5 2.3125 2.5 2.3125 5 5 C5 8 5 8 4 10 C1.7448078 7.7448078 1.02276532 5.9952413 0 3 C0 2.01 0 1.02 0 0 Z " fill="#1A1A1A" transform="translate(488,286)"/>
<path d="M0 0 C1.0326802 2.78823655 1.04509293 3.8677274 0.0625 6.75 C-0.288125 7.4925 -0.63875 8.235 -1 9 C-1.66 9 -2.32 9 -3 9 C-3.66 10.32 -4.32 11.64 -5 13 C-5.66 12.67 -6.32 12.34 -7 12 C-6.21625 10.948125 -5.4325 9.89625 -4.625 8.8125 C-2.59491421 5.98303198 -1.10887021 3.32661064 0 0 Z " fill="#C3C3C5" transform="translate(804,170)"/>
<path d="M0 0 C0.66 0 1.32 0 2 0 C2.84098656 4.01804691 3.05404945 7.01803543 2 11 C1.34 11 0.68 11 0 11 C0 7.37 0 3.74 0 0 Z " fill="#CDCDCD" transform="translate(704,175)"/>
<path d="M0 0 C0.33 0.66 0.66 1.32 1 2 C-4.0940919 8.70459519 -4.0940919 8.70459519 -7.875 9.9375 C-8.57625 9.958125 -9.2775 9.97875 -10 10 C-6.66666667 6.66666667 -3.33333333 3.33333333 0 0 Z " fill="#D8D8D8" transform="translate(621,332)"/>
<path d="M0 0 C1.32 1.32 2.64 2.64 4 4 C3.34 4.66 2.68 5.32 2 6 C1.54188325 7.97235333 1.54188325 7.97235333 1.375 10.125 C1.25125 11.40375 1.1275 12.6825 1 14 C0.67 14 0.34 14 0 14 C0 9.38 0 4.76 0 0 Z " fill="#E4E4E4" transform="translate(473,287)"/>
<path d="M0 0 C0.598125 0.350625 1.19625 0.70125 1.8125 1.0625 C1.4825 3.0425 1.1525 5.0225 0.8125 7.0625 C-0.56312854 5.77284824 -1.89516393 4.43560707 -3.1875 3.0625 C-3.1875 2.4025 -3.1875 1.7425 -3.1875 1.0625 C-3.8475 0.7325 -4.5075 0.4025 -5.1875 0.0625 C-2.1875 -0.9375 -2.1875 -0.9375 0 0 Z " fill="#171717" transform="translate(477.1875,284.9375)"/>
<path d="M0 0 C2 3 2 3 2 5 C-1.46153846 8 -1.46153846 8 -4 8 C-2.87548273 5.0280615 -1.77706209 2.66559313 0 0 Z " fill="#D2D2D2" transform="translate(691,281)"/>
<path d="M0 0 C0.99 0.33 1.98 0.66 3 1 C3 1.99 3 2.98 3 4 C3.99 4.66 4.98 5.32 6 6 C5.67 6.99 5.34 7.98 5 9 C2.33264727 6.51047079 0.44253657 4.36591866 -1 1 C-0.67 0.67 -0.34 0.34 0 0 Z " fill="#1A1A1A" transform="translate(771,189)"/>
<path d="M0 0 C0.33 0 0.66 0 1 0 C1.33 2.64 1.66 5.28 2 8 C1.01 8.495 1.01 8.495 0 9 C-0.33 9.99 -0.66 10.98 -1 12 C-1.66 12 -2.32 12 -3 12 C-2.01 8.04 -1.02 4.08 0 0 Z " fill="#CECECF" transform="translate(259,189)"/>
<path d="M0 0 C0 0.66 0 1.32 0 2 C0.66 2 1.32 2 2 2 C2 3.65 2 5.3 2 7 C-0.31 5.35 -2.62 3.7 -5 2 C-2 0 -2 0 0 0 Z " fill="#222222" transform="translate(441,150)"/>
<path d="M0 0 C1 3 1 3 1 5 C0.34 5 -0.32 5 -1 5 C-1.33 5.99 -1.66 6.98 -2 8 C-2.66 8 -3.32 8 -4 8 C-2.87548273 5.0280615 -1.77706209 2.66559313 0 0 Z " fill="#2D2D2D" transform="translate(681,274)"/>
<path d="M0 0 C1.5 1.375 1.5 1.375 3 3 C3 3.66 3 4.32 3 5 C1.68 5.33 0.36 5.66 -1 6 C-1.33 4.68 -1.66 3.36 -2 2 C-1.34 2 -0.68 2 0 2 C0 1.34 0 0.68 0 0 Z " fill="#191919" transform="translate(619,274)"/>
<path d="M0 0 C0.99 0.33 1.98 0.66 3 1 C2.67 2.65 2.34 4.3 2 6 C1.01 5.67 0.02 5.34 -1 5 C-0.67 3.35 -0.34 1.7 0 0 Z " fill="#E1E1E1" transform="translate(304,323)"/>
<path d="M0 0 C0.33 0.99 0.66 1.98 1 3 C-2 5 -2 5 -4.1875 4.625 C-4.785625 4.41875 -5.38375 4.2125 -6 4 C-2.25 0 -2.25 0 0 0 Z " fill="#D6D6D6" transform="translate(357,274)"/>
<path d="M0 0 C0.99 0.33 1.98 0.66 3 1 C3 1.66 3 2.32 3 3 C2.01 3 1.02 3 0 3 C-0.33 3.99 -0.66 4.98 -1 6 C-1.99 4.68 -2.98 3.36 -4 2 C-3.01 2 -2.02 2 -1 2 C-0.67 1.34 -0.34 0.68 0 0 Z " fill="#1F1F1F" transform="translate(149,152)"/>
</svg>
